<svg xmlns="http://www.w3.org/2000/svg" viewBox="0 0 1200 630" font-family="Roboto, Helvetica, Arial, sans-serif">
<rect x="0" y="0" width="1200" height="630" fill="#ffffff"/>
<rect x="0" y="0" width="1200" height="10" fill="#5b6ee1"/>
<text x="70" y="78" font-size="46" font-weight="700" fill="#222222">Three innovation cycles of the past decade</text>
<text x="70" y="118" font-size="23" fill="#666">MLSys 2026 reading guide &#8212; NLP &#8594; Cloud Native &#8594; LLM / AI Native</text>
<line x1="70" y1="170" x2="104" y2="170" stroke="#e8923c" stroke-width="5" stroke-linecap="round"/>
<text x="114" y="176" font-size="20" fill="#222222">NLP / Conversational AI</text>
<line x1="407" y1="170" x2="441" y2="170" stroke="#2f9e8f" stroke-width="5" stroke-linecap="round"/>
<text x="451" y="176" font-size="20" fill="#222222">Cloud Native</text>
<line x1="623" y1="170" x2="657" y2="170" stroke="#5b6ee1" stroke-width="5" stroke-linecap="round"/>
<text x="667" y="176" font-size="20" fill="#222222">LLM / AI Native</text>
<line x1="70.0" y1="250" x2="70.0" y2="560" stroke="#ececec" stroke-width="1.4"/>
<text x="70.0" y="588" font-size="19" fill="#777" text-anchor="middle">2016</text>
<line x1="243.3" y1="250" x2="243.3" y2="560" stroke="#ececec" stroke-width="1.4"/>
<text x="243.3" y="588" font-size="19" fill="#777" text-anchor="middle">2018</text>
<line x1="416.7" y1="250" x2="416.7" y2="560" stroke="#ececec" stroke-width="1.4"/>
<text x="416.7" y="588" font-size="19" fill="#777" text-anchor="middle">2020</text>
<line x1="590.0" y1="250" x2="590.0" y2="560" stroke="#ececec" stroke-width="1.4"/>
<text x="590.0" y="588" font-size="19" fill="#777" text-anchor="middle">2022</text>
<line x1="763.3" y1="250" x2="763.3" y2="560" stroke="#ececec" stroke-width="1.4"/>
<text x="763.3" y="588" font-size="19" fill="#777" text-anchor="middle">2024</text>
<line x1="936.7" y1="250" x2="936.7" y2="560" stroke="#ececec" stroke-width="1.4"/>
<text x="936.7" y="588" font-size="19" fill="#777" text-anchor="middle">2026</text>
<line x1="70" y1="560" x2="1010" y2="560" stroke="#999999" stroke-width="1.6"/>
<line x1="70" y1="244" x2="70" y2="560" stroke="#999999" stroke-width="1.6"/>
<path d="M 70.0 521.4 L 73.5 519.6 L 76.9 517.7 L 80.4 515.8 L 83.9 513.8 L 87.3 511.8 L 90.8 509.7 L 94.3 507.5 L 97.7 505.3 L 101.2 503.0 L 104.7 500.6 L 108.1 498.2 L 111.6 495.8 L 115.1 493.2 L 118.5 490.6 L 122.0 488.0 L 125.5 485.2 L 128.9 482.4 L 132.4 479.6 L 135.9 476.7 L 139.3 473.7 L 142.8 470.7 L 146.3 467.7 L 149.7 464.5 L 153.2 461.4 L 156.7 458.1 L 160.1 454.9 L 163.6 451.6 L 167.1 448.2 L 170.5 444.8 L 174.0 441.4 L 177.5 437.9 L 180.9 434.4 L 184.4 430.9 L 187.9 427.3 L 191.3 423.7 L 194.8 420.1 L 198.3 416.5 L 201.7 412.9 L 205.2 409.3 L 208.7 405.6 L 212.1 402.0 L 215.6 398.4 L 219.1 394.7 L 222.5 391.1 L 226.0 387.5 L 229.5 383.9 L 232.9 380.4 L 236.4 376.8 L 239.9 373.4 L 243.3 369.9 L 246.8 366.5 L 250.3 363.1 L 253.7 359.8 L 257.2 356.5 L 260.7 353.4 L 264.1 350.2 L 267.6 347.2 L 271.1 344.2 L 274.5 341.3 L 278.0 338.4 L 281.5 335.7 L 284.9 333.0 L 288.4 330.5 L 291.9 328.0 L 295.3 325.7 L 298.8 323.4 L 302.3 321.3 L 305.7 319.2 L 309.2 317.3 L 312.7 315.5 L 316.1 313.8 L 319.6 312.3 L 323.1 310.8 L 326.5 309.5 L 330.0 308.4 L 333.5 307.3 L 336.9 306.4 L 340.4 305.6 L 343.9 305.0 L 347.3 304.5 L 350.8 304.1 L 354.3 303.9 L 357.7 303.8 L 361.2 303.9 L 364.7 304.0 L 368.1 304.4 L 371.6 304.8 L 375.1 305.4 L 378.5 306.1 L 382.0 307.0 L 385.5 308.0 L 388.9 309.1 L 392.4 310.3 L 395.9 311.7 L 399.3 313.1 L 402.8 314.7 L 406.3 316.5 L 409.7 318.3 L 413.2 320.2 L 416.7 322.3 L 420.1 324.4 L 423.6 326.7 L 427.1 329.0 L 430.5 331.4 L 434.0 333.9 L 437.5 336.5 L 440.9 339.2 L 444.4 342.0 L 447.9 344.8 L 451.3 347.7 L 454.8 350.6 L 458.3 353.6 L 461.7 356.7 L 465.2 359.8 L 468.7 362.9 L 472.1 366.1 L 475.6 369.3 L 479.1 372.6 L 482.5 375.9 L 486.0 379.1 L 489.5 382.5 L 492.9 385.8 L 496.4 389.1 L 499.9 392.4 L 503.3 395.8 L 506.8 399.1 L 510.3 402.4 L 513.7 405.7 L 517.2 409.0 L 520.7 412.2 L 524.1 415.5 L 527.6 418.7 L 531.1 421.9 L 534.5 425.0 L 538.0 428.2 L 541.5 431.2 L 544.9 434.3 L 548.4 437.3 L 551.9 440.2 L 555.3 443.1 L 558.8 446.0 L 562.3 448.8 L 565.7 451.5 L 569.2 454.2 L 572.7 456.9 L 576.1 459.4 L 579.6 462.0 L 583.1 464.4 L 586.5 466.8 L 590.0 469.2 L 593.5 471.5 L 596.9 473.7 L 600.4 475.9 L 603.9 478.0 L 607.3 480.0 L 610.8 482.0 L 614.3 483.9 L 617.7 485.7 L 621.2 487.5 L 624.7 489.3 L 628.1 491.0 L 631.6 492.6 L 635.1 494.1 L 638.5 495.7 L 642.0 497.1 L 645.5 498.5 L 648.9 499.8 L 652.4 501.1 L 655.9 502.4 L 659.3 503.6 L 662.8 504.7 L 666.3 505.8 L 669.7 506.9 L 673.2 507.9 L 676.7 508.8 L 680.1 509.8 L 683.6 510.7 L 687.1 511.5 L 690.5 512.3 L 694.0 513.1 L 697.5 513.8 L 700.9 514.5 L 704.4 515.2 L 707.9 515.9 L 711.3 516.5 L 714.8 517.1 L 718.3 517.7 L 721.7 518.2 L 725.2 518.7 L 728.7 519.2 L 732.1 519.7 L 735.6 520.2 L 739.1 520.6 L 742.5 521.1 L 746.0 521.5 L 749.5 521.9 L 752.9 522.3 L 756.4 522.7 L 759.9 523.1 L 763.3 523.4 L 766.8 523.8 L 770.3 524.1 L 773.7 524.5 L 777.2 524.8 L 780.7 525.2 L 784.1 525.5 L 787.6 525.8 L 791.1 526.1 L 794.5 526.5 L 798.0 526.8 L 801.5 527.1 L 804.9 527.4 L 808.4 527.8 L 811.9 528.1 L 815.3 528.4 L 818.8 528.7 L 822.3 529.0 L 825.7 529.4 L 829.2 529.7 L 832.7 530.0 L 836.1 530.4 L 839.6 530.7 L 843.1 531.0 L 846.5 531.4 L 850.0 531.7 L 853.5 532.1 L 856.9 532.4 L 860.4 532.8 L 863.9 533.1 L 867.3 533.5 L 870.8 533.9 L 874.3 534.2 L 877.7 534.6 L 881.2 535.0 L 884.7 535.3 L 888.1 535.7 L 891.6 536.1 L 895.1 536.5 L 898.5 536.8 L 902.0 537.2 L 905.5 537.6 L 908.9 538.0 L 912.4 538.4 L 915.9 538.8 L 919.3 539.2 L 922.8 539.5 L 926.3 539.9 L 929.7 540.3 L 933.2 540.7 L 936.7 541.1 L 940.1 541.5 L 943.6 541.9 L 947.1 542.2 L 950.5 542.6 L 954.0 543.0 L 957.5 543.4 L 960.9 543.8 L 964.4 544.1 L 967.9 544.5 L 971.3 544.9 L 974.8 545.2 L 978.3 545.6" fill="none" stroke="#e8923c" stroke-width="5" stroke-linejoin="round" stroke-linecap="round"/>
<path d="M 70.0 380.2 L 73.5 376.0 L 76.9 371.8 L 80.4 367.7 L 83.9 363.5 L 87.3 359.4 L 90.8 355.4 L 94.3 351.4 L 97.7 347.4 L 101.2 343.5 L 104.7 339.7 L 108.1 336.0 L 111.6 332.3 L 115.1 328.7 L 118.5 325.2 L 122.0 321.8 L 125.5 318.5 L 128.9 315.3 L 132.4 312.3 L 135.9 309.3 L 139.3 306.5 L 142.8 303.8 L 146.3 301.2 L 149.7 298.7 L 153.2 296.4 L 156.7 294.3 L 160.1 292.3 L 163.6 290.4 L 167.1 288.8 L 170.5 287.2 L 174.0 285.9 L 177.5 284.7 L 180.9 283.6 L 184.4 282.8 L 187.9 282.1 L 191.3 281.5 L 194.8 281.2 L 198.3 281.0 L 201.7 281.0 L 205.2 281.0 L 208.7 281.0 L 212.1 281.0 L 215.6 281.0 L 219.1 281.0 L 222.5 281.0 L 226.0 281.0 L 229.5 281.0 L 232.9 281.0 L 236.4 281.0 L 239.9 281.0 L 243.3 281.0 L 246.8 281.0 L 250.3 281.0 L 253.7 281.0 L 257.2 281.0 L 260.7 281.0 L 264.1 281.0 L 267.6 281.0 L 271.1 281.0 L 274.5 281.0 L 278.0 281.0 L 281.5 281.0 L 284.9 281.0 L 288.4 281.0 L 291.9 281.0 L 295.3 281.0 L 298.8 281.0 L 302.3 281.0 L 305.7 281.0 L 309.2 281.0 L 312.7 281.0 L 316.1 281.0 L 319.6 281.0 L 323.1 281.0 L 326.5 281.0 L 330.0 281.0 L 333.5 281.0 L 336.9 281.0 L 340.4 281.0 L 343.9 281.0 L 347.3 281.0 L 350.8 281.0 L 354.3 281.0 L 357.7 281.0 L 361.2 281.0 L 364.7 281.0 L 368.1 281.0 L 371.6 281.0 L 375.1 281.0 L 378.5 281.0 L 382.0 281.0 L 385.5 281.0 L 388.9 281.0 L 392.4 281.0 L 395.9 281.0 L 399.3 281.0 L 402.8 281.0 L 406.3 281.0 L 409.7 281.0 L 413.2 281.0 L 416.7 281.0 L 420.1 281.0 L 423.6 281.0 L 427.1 281.0 L 430.5 281.0 L 434.0 281.0 L 437.5 281.0 L 440.9 281.0 L 444.4 281.0 L 447.9 281.0 L 451.3 281.0 L 454.8 281.0 L 458.3 281.0 L 461.7 281.0 L 465.2 281.0 L 468.7 281.0 L 472.1 281.0 L 475.6 281.0 L 479.1 281.0 L 482.5 281.0 L 486.0 281.0 L 489.5 281.0 L 492.9 281.0 L 496.4 281.0 L 499.9 281.0 L 503.3 281.0 L 506.8 281.0 L 510.3 281.0 L 513.7 281.0 L 517.2 281.0 L 520.7 281.0 L 524.1 281.0 L 527.6 281.0 L 531.1 281.0 L 534.5 281.0 L 538.0 281.0 L 541.5 281.0 L 544.9 281.0 L 548.4 281.0 L 551.9 281.0 L 555.3 281.0 L 558.8 281.0 L 562.3 281.0 L 565.7 281.0 L 569.2 281.0 L 572.7 281.0 L 576.1 281.0 L 579.6 281.0 L 583.1 281.0 L 586.5 281.0 L 590.0 281.0 L 593.5 281.0 L 596.9 281.0 L 600.4 281.0 L 603.9 281.0 L 607.3 281.0 L 610.8 281.0 L 614.3 281.0 L 617.7 281.0 L 621.2 281.0 L 624.7 281.0 L 628.1 281.0 L 631.6 281.0 L 635.1 281.0 L 638.5 281.0 L 642.0 281.0 L 645.5 281.0 L 648.9 281.0 L 652.4 281.0 L 655.9 281.0 L 659.3 281.0 L 662.8 281.0 L 666.3 281.0 L 669.7 281.0 L 673.2 281.0 L 676.7 281.0 L 680.1 281.0 L 683.6 281.0 L 687.1 281.0 L 690.5 281.0 L 694.0 281.0 L 697.5 281.0 L 700.9 281.0 L 704.4 281.0 L 707.9 281.0 L 711.3 281.0 L 714.8 281.0 L 718.3 281.0 L 721.7 281.0 L 725.2 281.0 L 728.7 281.0 L 732.1 281.0 L 735.6 281.0 L 739.1 281.0 L 742.5 281.0 L 746.0 281.0 L 749.5 281.0 L 752.9 281.0 L 756.4 281.0 L 759.9 281.0 L 763.3 281.0 L 766.8 281.0 L 770.3 281.0 L 773.7 281.0 L 777.2 281.0 L 780.7 281.0 L 784.1 281.0 L 787.6 281.0 L 791.1 281.0 L 794.5 281.0 L 798.0 281.0 L 801.5 281.0 L 804.9 281.0 L 808.4 281.0 L 811.9 281.0 L 815.3 281.0 L 818.8 281.0 L 822.3 281.0 L 825.7 281.0 L 829.2 281.0 L 832.7 281.0 L 836.1 281.0 L 839.6 281.0 L 843.1 281.0 L 846.5 281.0 L 850.0 281.0 L 853.5 281.0 L 856.9 281.0 L 860.4 281.0 L 863.9 281.0 L 867.3 281.0 L 870.8 281.0 L 874.3 281.0 L 877.7 281.0 L 881.2 281.0 L 884.7 281.0 L 888.1 281.0 L 891.6 281.0 L 895.1 281.0 L 898.5 281.0 L 902.0 281.0 L 905.5 281.0 L 908.9 281.0 L 912.4 281.0 L 915.9 281.0 L 919.3 281.0 L 922.8 281.0 L 926.3 281.0 L 929.7 281.0 L 933.2 281.0 L 936.7 281.0 L 940.1 281.0 L 943.6 281.0 L 947.1 281.0 L 950.5 281.0 L 954.0 281.0 L 957.5 281.0 L 960.9 281.0 L 964.4 281.0 L 967.9 281.0 L 971.3 281.0 L 974.8 281.0 L 978.3 281.0" fill="none" stroke="#2f9e8f" stroke-width="5" stroke-linejoin="round" stroke-linecap="round"/>
<path d="M 70.0 492.6 L 73.5 488.1 L 76.9 484.4 L 80.4 481.7 L 83.9 480.0 L 87.3 479.4 L 90.8 480.0 L 94.3 481.7 L 97.7 484.4 L 101.2 488.1 L 104.7 492.5 L 108.1 497.6 L 111.6 503.0 L 115.1 508.6 L 118.5 514.2 L 122.0 519.6 L 125.5 524.8 L 128.9 529.5 L 132.4 533.8 L 135.9 537.5 L 139.3 540.8 L 142.8 543.5 L 146.3 545.8 L 149.7 547.6 L 153.2 549.1 L 156.7 550.2 L 160.1 551.0 L 163.6 551.6 L 167.1 552.0 L 170.5 552.2 L 174.0 552.3 L 177.5 552.2 L 180.9 551.9 L 184.4 551.4 L 187.9 550.8 L 191.3 549.8 L 194.8 548.6 L 198.3 547.0 L 201.7 545.2 L 205.2 543.0 L 208.7 540.5 L 212.1 537.7 L 215.6 534.8 L 219.1 531.9 L 222.5 529.1 L 226.0 526.5 L 229.5 524.4 L 232.9 522.8 L 236.4 521.8 L 239.9 521.6 L 243.3 522.1 L 246.8 523.3 L 250.3 525.0 L 253.7 527.3 L 257.2 529.9 L 260.7 532.6 L 264.1 535.4 L 267.6 538.0 L 271.1 540.4 L 274.5 542.4 L 278.0 544.1 L 281.5 545.3 L 284.9 546.1 L 288.4 546.4 L 291.9 546.3 L 295.3 545.9 L 298.8 545.0 L 302.3 543.8 L 305.7 542.4 L 309.2 540.7 L 312.7 538.9 L 316.1 537.0 L 319.6 535.1 L 323.1 533.3 L 326.5 531.8 L 330.0 530.5 L 333.5 529.6 L 336.9 529.0 L 340.4 528.9 L 343.9 529.3 L 347.3 530.0 L 350.8 531.2 L 354.3 532.6 L 357.7 534.2 L 361.2 535.9 L 364.7 537.7 L 368.1 539.4 L 371.6 541.0 L 375.1 542.5 L 378.5 543.8 L 382.0 544.9 L 385.5 545.8 L 388.9 546.5 L 392.4 547.0 L 395.9 547.4 L 399.3 547.6 L 402.8 547.8 L 406.3 547.8 L 409.7 547.8 L 413.2 547.7 L 416.7 547.6 L 420.1 547.5 L 423.6 547.3 L 427.1 547.1 L 430.5 546.9 L 434.0 546.7 L 437.5 546.4 L 440.9 546.2 L 444.4 545.9 L 447.9 545.6 L 451.3 545.3 L 454.8 545.0 L 458.3 544.7 L 461.7 544.3 L 465.2 544.0 L 468.7 543.6 L 472.1 543.2 L 475.6 542.7 L 479.1 542.3 L 482.5 541.8 L 486.0 541.2 L 489.5 540.7 L 492.9 540.1 L 496.4 539.4 L 499.9 538.8 L 503.3 538.0 L 506.8 537.3 L 510.3 536.5 L 513.7 535.6 L 517.2 534.6 L 520.7 533.7 L 524.1 532.6 L 527.6 531.5 L 531.1 530.3 L 534.5 529.0 L 538.0 527.6 L 541.5 526.2 L 544.9 524.6 L 548.4 523.0 L 551.9 521.2 L 555.3 519.3 L 558.8 517.4 L 562.3 515.3 L 565.7 513.0 L 569.2 510.7 L 572.7 508.2 L 576.1 505.6 L 579.6 502.8 L 583.1 499.9 L 586.5 496.8 L 590.0 493.6 L 593.5 490.2 L 596.9 486.7 L 600.4 483.0 L 603.9 479.2 L 607.3 475.2 L 610.8 471.1 L 614.3 466.8 L 617.7 462.4 L 621.2 457.9 L 624.7 453.2 L 628.1 448.5 L 631.6 443.6 L 635.1 438.7 L 638.5 433.7 L 642.0 428.7 L 645.5 423.6 L 648.9 418.4 L 652.4 413.3 L 655.9 408.2 L 659.3 403.1 L 662.8 398.0 L 666.3 393.0 L 669.7 388.1 L 673.2 383.3 L 676.7 378.5 L 680.1 373.8 L 683.6 369.3 L 687.1 364.9 L 690.5 360.6 L 694.0 356.4 L 697.5 352.4 L 700.9 348.6 L 704.4 344.8 L 707.9 341.3 L 711.3 337.9 L 714.8 334.6 L 718.3 331.5 L 721.7 328.6 L 725.2 325.7 L 728.7 323.1 L 732.1 320.5 L 735.6 318.1 L 739.1 315.9 L 742.5 313.7 L 746.0 311.7 L 749.5 309.8 L 752.9 307.9 L 756.4 306.2 L 759.9 304.6 L 763.3 303.1 L 766.8 301.7 L 770.3 300.3 L 773.7 299.1 L 777.2 297.8 L 780.7 296.7 L 784.1 295.6 L 787.6 294.6 L 791.1 293.7 L 794.5 292.8 L 798.0 291.9 L 801.5 291.1 L 804.9 290.4 L 808.4 289.6 L 811.9 289.0 L 815.3 288.3 L 818.8 287.7 L 822.3 287.1 L 825.7 286.5 L 829.2 286.0 L 832.7 285.5 L 836.1 285.0 L 839.6 284.5 L 843.1 284.0 L 846.5 283.6 L 850.0 283.2 L 853.5 282.7 L 856.9 282.3 L 860.4 282.0 L 863.9 281.6 L 867.3 281.2 L 870.8 280.9 L 874.3 280.5 L 877.7 280.2 L 881.2 279.8 L 884.7 279.5 L 888.1 279.2 L 891.6 278.9 L 895.1 278.6 L 898.5 278.3 L 902.0 278.0 L 905.5 277.7 L 908.9 277.4 L 912.4 277.1 L 915.9 276.8 L 919.3 276.5 L 922.8 276.2 L 926.3 276.0 L 929.7 275.7 L 933.2 275.4 L 936.7 275.1 L 940.1 274.9 L 943.6 274.6 L 947.1 274.3 L 950.5 274.0 L 954.0 273.8 L 957.5 273.5 L 960.9 273.2 L 964.4 273.0 L 967.9 272.7 L 971.3 272.4 L 974.8 272.2 L 978.3 271.9" fill="none" stroke="#5b6ee1" stroke-width="5" stroke-linejoin="round" stroke-linecap="round"/>
<circle cx="200.0" cy="281.0" r="4" fill="#2f9e8f"/>
<text x="200.0" y="271.0" font-size="17" fill="#2f9e8f" text-anchor="middle">~2017–18</text>
<circle cx="356.0" cy="303.8" r="4" fill="#e8923c"/>
<text x="356.0" y="293.8" font-size="17" fill="#e8923c" text-anchor="middle">~2019–20</text>
<circle cx="87.3" cy="479.4" r="4" fill="#5b6ee1"/>
<text x="91.3" y="469.4" font-size="17" fill="#5b6ee1" text-anchor="start">AlphaGo ’16</text>
<circle cx="954.0" cy="273.8" r="4" fill="#5b6ee1"/>
<text x="950.0" y="263.8" font-size="17" fill="#5b6ee1" text-anchor="end">rising</text>
<text x="1010" y="608" font-size="18" fill="#aaa" text-anchor="end">pengandy.com/blog/2026/mlsys</text>
</svg>