<svg xmlns="http://www.w3.org/2000/svg" viewBox="0 0 960 640" font-family="Roboto, Helvetica, Arial, sans-serif" role="img" aria-label="Three innovation cycles of the past decade">
<rect x="0" y="0" width="960" height="640" fill="#ffffff"/>
<text x="78" y="40" font-size="20" font-weight="700" fill="#333333">Three innovation cycles of the past decade</text>
<text x="78" y="60" font-size="12.5" fill="#777">x-axis: year &#183; y-axis: relative intensity (unlabeled)</text>
<line x1="78.0" y1="78" x2="78.0" y2="300" stroke="#e6e6e6" stroke-width="1"/>
<line x1="78.0" y1="372" x2="78.0" y2="560" stroke="#e6e6e6" stroke-width="1"/>
<line x1="200.3" y1="78" x2="200.3" y2="300" stroke="#e6e6e6" stroke-width="1"/>
<line x1="200.3" y1="372" x2="200.3" y2="560" stroke="#e6e6e6" stroke-width="1"/>
<line x1="322.6" y1="78" x2="322.6" y2="300" stroke="#e6e6e6" stroke-width="1"/>
<line x1="322.6" y1="372" x2="322.6" y2="560" stroke="#e6e6e6" stroke-width="1"/>
<line x1="444.9" y1="78" x2="444.9" y2="300" stroke="#e6e6e6" stroke-width="1"/>
<line x1="444.9" y1="372" x2="444.9" y2="560" stroke="#e6e6e6" stroke-width="1"/>
<line x1="567.1" y1="78" x2="567.1" y2="300" stroke="#e6e6e6" stroke-width="1"/>
<line x1="567.1" y1="372" x2="567.1" y2="560" stroke="#e6e6e6" stroke-width="1"/>
<line x1="689.4" y1="78" x2="689.4" y2="300" stroke="#e6e6e6" stroke-width="1"/>
<line x1="689.4" y1="372" x2="689.4" y2="560" stroke="#e6e6e6" stroke-width="1"/>
<text x="78" y="70" font-size="13.5" font-weight="700" fill="#333333">Pattern 1 &#8212; Hype waves (interest over time, peaks &amp; troughs)</text>
<line x1="78" y1="300" x2="720" y2="300" stroke="#999999" stroke-width="1.4"/>
<line x1="78" y1="76" x2="78" y2="300" stroke="#999999" stroke-width="1.4"/>
<path d="M 78.0 272.3 L 81.1 270.7 L 84.1 269.0 L 87.2 267.3 L 90.2 265.5 L 93.3 263.6 L 96.3 261.6 L 99.4 259.6 L 102.5 257.5 L 105.5 255.3 L 108.6 253.1 L 111.6 250.8 L 114.7 248.4 L 117.7 246.0 L 120.8 243.4 L 123.9 240.9 L 126.9 238.2 L 130.0 235.5 L 133.0 232.8 L 136.1 229.9 L 139.1 227.1 L 142.2 224.1 L 145.3 221.1 L 148.3 218.1 L 151.4 215.1 L 154.4 211.9 L 157.5 208.8 L 160.5 205.6 L 163.6 202.4 L 166.7 199.2 L 169.7 196.0 L 172.8 192.7 L 175.8 189.5 L 178.9 186.2 L 181.9 182.9 L 185.0 179.7 L 188.1 176.5 L 191.1 173.3 L 194.2 170.1 L 197.2 167.0 L 200.3 163.9 L 203.3 160.8 L 206.4 157.8 L 209.5 154.9 L 212.5 152.0 L 215.6 149.2 L 218.6 146.5 L 221.7 143.9 L 224.7 141.3 L 227.8 138.9 L 230.9 136.5 L 233.9 134.3 L 237.0 132.2 L 240.0 130.2 L 243.1 128.3 L 246.1 126.5 L 249.2 124.9 L 252.3 123.4 L 255.3 122.1 L 258.4 120.9 L 261.4 119.8 L 264.5 118.9 L 267.5 118.1 L 270.6 117.5 L 273.7 117.0 L 276.7 116.7 L 279.8 116.6 L 282.8 116.6 L 285.9 116.7 L 288.9 117.0 L 292.0 117.4 L 295.1 118.0 L 298.1 118.8 L 301.2 119.7 L 304.2 120.7 L 307.3 121.9 L 310.3 123.2 L 313.4 124.7 L 316.5 126.2 L 319.5 127.9 L 322.6 129.8 L 325.6 131.7 L 328.7 133.7 L 331.7 135.9 L 334.8 138.1 L 337.9 140.4 L 340.9 142.9 L 344.0 145.4 L 347.0 148.0 L 350.1 150.6 L 353.1 153.3 L 356.2 156.1 L 359.3 158.9 L 362.3 161.7 L 365.4 164.6 L 368.4 167.5 L 371.5 170.5 L 374.5 173.4 L 377.6 176.4 L 380.7 179.4 L 383.7 182.4 L 386.8 185.4 L 389.8 188.3 L 392.9 191.3 L 395.9 194.2 L 399.0 197.1 L 402.1 200.0 L 405.1 202.8 L 408.2 205.6 L 411.2 208.3 L 414.3 211.0 L 417.3 213.7 L 420.4 216.3 L 423.5 218.8 L 426.5 221.3 L 429.6 223.8 L 432.6 226.1 L 435.7 228.4 L 438.7 230.7 L 441.8 232.9 L 444.9 235.0 L 447.9 237.0 L 451.0 239.0 L 454.0 240.9 L 457.1 242.7 L 460.1 244.5 L 463.2 246.2 L 466.3 247.8 L 469.3 249.4 L 472.4 250.9 L 475.4 252.3 L 478.5 253.7 L 481.5 255.0 L 484.6 256.2 L 487.7 257.4 L 490.7 258.5 L 493.8 259.6 L 496.8 260.6 L 499.9 261.6 L 502.9 262.5 L 506.0 263.4 L 509.1 264.2 L 512.1 265.0 L 515.2 265.7 L 518.2 266.4 L 521.3 267.1 L 524.3 267.7 L 527.4 268.3 L 530.5 268.8 L 533.5 269.4 L 536.6 269.9 L 539.6 270.4 L 542.7 270.8 L 545.7 271.2 L 548.8 271.7 L 551.9 272.1 L 554.9 272.4 L 558.0 272.8 L 561.0 273.1 L 564.1 273.5 L 567.1 273.8 L 570.2 274.1 L 573.3 274.4 L 576.3 274.8 L 579.4 275.1 L 582.4 275.3 L 585.5 275.6 L 588.5 275.9 L 591.6 276.2 L 594.7 276.5 L 597.7 276.8 L 600.8 277.1 L 603.8 277.4 L 606.9 277.7 L 609.9 277.9 L 613.0 278.2 L 616.1 278.5 L 619.1 278.8 L 622.2 279.1 L 625.2 279.4 L 628.3 279.7 L 631.3 280.1 L 634.4 280.4 L 637.5 280.7 L 640.5 281.0 L 643.6 281.3 L 646.6 281.7 L 649.7 282.0 L 652.7 282.3 L 655.8 282.7 L 658.9 283.0 L 661.9 283.3 L 665.0 283.7 L 668.0 284.0 L 671.1 284.4 L 674.1 284.7 L 677.2 285.1 L 680.3 285.4 L 683.3 285.8 L 686.4 286.1 L 689.4 286.5 L 692.5 286.8 L 695.5 287.1 L 698.6 287.5 L 701.7 287.8 L 704.7 288.2 L 707.8 288.5 L 710.8 288.8 L 713.9 289.2 L 716.9 289.5 L 720.0 289.8" fill="none" stroke="#e8923c" stroke-width="2.6" stroke-linejoin="round" stroke-linecap="round"/>
<path d="M 78.0 171.3 L 81.1 167.5 L 84.1 163.7 L 87.2 160.0 L 90.2 156.4 L 93.3 152.7 L 96.3 149.2 L 99.4 145.7 L 102.5 142.3 L 105.5 138.9 L 108.6 135.6 L 111.6 132.5 L 114.7 129.4 L 117.7 126.5 L 120.8 123.7 L 123.9 121.0 L 126.9 118.4 L 130.0 116.0 L 133.0 113.8 L 136.1 111.7 L 139.1 109.7 L 142.2 107.9 L 145.3 106.3 L 148.3 104.9 L 151.4 103.7 L 154.4 102.6 L 157.5 101.8 L 160.5 101.1 L 163.6 100.6 L 166.7 100.3 L 169.7 100.2 L 172.8 100.2 L 175.8 100.2 L 178.9 100.2 L 181.9 100.2 L 185.0 100.2 L 188.1 100.2 L 191.1 100.2 L 194.2 100.2 L 197.2 100.2 L 200.3 100.2 L 203.3 100.2 L 206.4 100.2 L 209.5 100.2 L 212.5 100.2 L 215.6 100.2 L 218.6 100.2 L 221.7 100.2 L 224.7 100.2 L 227.8 100.2 L 230.9 100.2 L 233.9 100.2 L 237.0 100.2 L 240.0 100.2 L 243.1 100.2 L 246.1 100.2 L 249.2 100.2 L 252.3 100.2 L 255.3 100.2 L 258.4 100.2 L 261.4 100.2 L 264.5 100.2 L 267.5 100.2 L 270.6 100.2 L 273.7 100.2 L 276.7 100.2 L 279.8 100.2 L 282.8 100.2 L 285.9 100.2 L 288.9 100.2 L 292.0 100.2 L 295.1 100.2 L 298.1 100.2 L 301.2 100.2 L 304.2 100.2 L 307.3 100.2 L 310.3 100.2 L 313.4 100.2 L 316.5 100.2 L 319.5 100.2 L 322.6 100.2 L 325.6 100.2 L 328.7 100.2 L 331.7 100.2 L 334.8 100.2 L 337.9 100.2 L 340.9 100.2 L 344.0 100.2 L 347.0 100.2 L 350.1 100.2 L 353.1 100.2 L 356.2 100.2 L 359.3 100.2 L 362.3 100.2 L 365.4 100.2 L 368.4 100.2 L 371.5 100.2 L 374.5 100.2 L 377.6 100.2 L 380.7 100.2 L 383.7 100.2 L 386.8 100.2 L 389.8 100.2 L 392.9 100.2 L 395.9 100.2 L 399.0 100.2 L 402.1 100.2 L 405.1 100.2 L 408.2 100.2 L 411.2 100.2 L 414.3 100.2 L 417.3 100.2 L 420.4 100.2 L 423.5 100.2 L 426.5 100.2 L 429.6 100.2 L 432.6 100.2 L 435.7 100.2 L 438.7 100.2 L 441.8 100.2 L 444.9 100.2 L 447.9 100.2 L 451.0 100.2 L 454.0 100.2 L 457.1 100.2 L 460.1 100.2 L 463.2 100.2 L 466.3 100.2 L 469.3 100.2 L 472.4 100.2 L 475.4 100.2 L 478.5 100.2 L 481.5 100.2 L 484.6 100.2 L 487.7 100.2 L 490.7 100.2 L 493.8 100.2 L 496.8 100.2 L 499.9 100.2 L 502.9 100.2 L 506.0 100.2 L 509.1 100.2 L 512.1 100.2 L 515.2 100.2 L 518.2 100.2 L 521.3 100.2 L 524.3 100.2 L 527.4 100.2 L 530.5 100.2 L 533.5 100.2 L 536.6 100.2 L 539.6 100.2 L 542.7 100.2 L 545.7 100.2 L 548.8 100.2 L 551.9 100.2 L 554.9 100.2 L 558.0 100.2 L 561.0 100.2 L 564.1 100.2 L 567.1 100.2 L 570.2 100.2 L 573.3 100.2 L 576.3 100.2 L 579.4 100.2 L 582.4 100.2 L 585.5 100.2 L 588.5 100.2 L 591.6 100.2 L 594.7 100.2 L 597.7 100.2 L 600.8 100.2 L 603.8 100.2 L 606.9 100.2 L 609.9 100.2 L 613.0 100.2 L 616.1 100.2 L 619.1 100.2 L 622.2 100.2 L 625.2 100.2 L 628.3 100.2 L 631.3 100.2 L 634.4 100.2 L 637.5 100.2 L 640.5 100.2 L 643.6 100.2 L 646.6 100.2 L 649.7 100.2 L 652.7 100.2 L 655.8 100.2 L 658.9 100.2 L 661.9 100.2 L 665.0 100.2 L 668.0 100.2 L 671.1 100.2 L 674.1 100.2 L 677.2 100.2 L 680.3 100.2 L 683.3 100.2 L 686.4 100.2 L 689.4 100.2 L 692.5 100.2 L 695.5 100.2 L 698.6 100.2 L 701.7 100.2 L 704.7 100.2 L 707.8 100.2 L 710.8 100.2 L 713.9 100.2 L 716.9 100.2 L 720.0 100.2" fill="none" stroke="#2f9e8f" stroke-width="2.6" stroke-linejoin="round" stroke-linecap="round"/>
<path d="M 78.0 251.7 L 81.1 247.8 L 84.1 244.8 L 87.2 242.9 L 90.2 242.3 L 93.3 242.9 L 96.3 244.8 L 99.4 247.8 L 102.5 251.7 L 105.5 256.2 L 108.6 261.2 L 111.6 266.2 L 114.7 271.1 L 117.7 275.6 L 120.8 279.7 L 123.9 283.3 L 126.9 286.2 L 130.0 288.6 L 133.0 290.5 L 136.1 291.9 L 139.1 293.0 L 142.2 293.7 L 145.3 294.2 L 148.3 294.4 L 151.4 294.5 L 154.4 294.4 L 157.5 294.1 L 160.5 293.5 L 163.6 292.7 L 166.7 291.6 L 169.7 290.1 L 172.8 288.2 L 175.8 286.0 L 178.9 283.5 L 181.9 280.9 L 185.0 278.4 L 188.1 276.0 L 191.1 274.2 L 194.2 273.0 L 197.2 272.5 L 200.3 272.9 L 203.3 274.0 L 206.4 275.7 L 209.5 278.0 L 212.5 280.4 L 215.6 282.8 L 218.6 285.1 L 221.7 287.1 L 224.7 288.6 L 227.8 289.6 L 230.9 290.2 L 233.9 290.3 L 237.0 289.9 L 240.0 289.1 L 243.1 287.9 L 246.1 286.5 L 249.2 284.9 L 252.3 283.2 L 255.3 281.5 L 258.4 280.1 L 261.4 278.9 L 264.5 278.1 L 267.5 277.8 L 270.6 277.9 L 273.7 278.5 L 276.7 279.6 L 279.8 280.9 L 282.8 282.4 L 285.9 284.0 L 288.9 285.5 L 292.0 286.9 L 295.1 288.2 L 298.1 289.2 L 301.2 289.9 L 304.2 290.5 L 307.3 290.9 L 310.3 291.1 L 313.4 291.2 L 316.5 291.3 L 319.5 291.2 L 322.6 291.1 L 325.6 291.0 L 328.7 290.8 L 331.7 290.6 L 334.8 290.4 L 337.9 290.2 L 340.9 290.0 L 344.0 289.8 L 347.0 289.5 L 350.1 289.2 L 353.1 288.9 L 356.2 288.6 L 359.3 288.2 L 362.3 287.9 L 365.4 287.5 L 368.4 287.0 L 371.5 286.6 L 374.5 286.1 L 377.6 285.5 L 380.7 284.9 L 383.7 284.3 L 386.8 283.6 L 389.8 282.8 L 392.9 282.0 L 395.9 281.1 L 399.0 280.2 L 402.1 279.1 L 405.1 278.0 L 408.2 276.8 L 411.2 275.5 L 414.3 274.1 L 417.3 272.5 L 420.4 270.9 L 423.5 269.1 L 426.5 267.2 L 429.6 265.1 L 432.6 262.9 L 435.7 260.5 L 438.7 258.0 L 441.8 255.3 L 444.9 252.4 L 447.9 249.4 L 451.0 246.2 L 454.0 242.8 L 457.1 239.3 L 460.1 235.6 L 463.2 231.7 L 466.3 227.7 L 469.3 223.5 L 472.4 219.3 L 475.4 214.9 L 478.5 210.5 L 481.5 205.9 L 484.6 201.4 L 487.7 196.8 L 490.7 192.2 L 493.8 187.6 L 496.8 183.1 L 499.9 178.7 L 502.9 174.3 L 506.0 170.0 L 509.1 165.9 L 512.1 161.8 L 515.2 157.9 L 518.2 154.2 L 521.3 150.6 L 524.3 147.2 L 527.4 144.0 L 530.5 140.9 L 533.5 138.0 L 536.6 135.3 L 539.6 132.7 L 542.7 130.3 L 545.7 128.1 L 548.8 126.0 L 551.9 124.0 L 554.9 122.2 L 558.0 120.5 L 561.0 118.9 L 564.1 117.4 L 567.1 116.0 L 570.2 114.8 L 573.3 113.6 L 576.3 112.5 L 579.4 111.5 L 582.4 110.5 L 585.5 109.6 L 588.5 108.8 L 591.6 108.0 L 594.7 107.3 L 597.7 106.6 L 600.8 106.0 L 603.8 105.4 L 606.9 104.9 L 609.9 104.4 L 613.0 103.9 L 616.1 103.4 L 619.1 102.9 L 622.2 102.5 L 625.2 102.1 L 628.3 101.7 L 631.3 101.4 L 634.4 101.0 L 637.5 100.7 L 640.5 100.4 L 643.6 100.0 L 646.6 99.7 L 649.7 99.4 L 652.7 99.1 L 655.8 98.9 L 658.9 98.6 L 661.9 98.3 L 665.0 98.0 L 668.0 97.8 L 671.1 97.5 L 674.1 97.3 L 677.2 97.0 L 680.3 96.7 L 683.3 96.5 L 686.4 96.2 L 689.4 96.0 L 692.5 95.8 L 695.5 95.5 L 698.6 95.3 L 701.7 95.0 L 704.7 94.8 L 707.8 94.5 L 710.8 94.3 L 713.9 94.1 L 716.9 93.8 L 720.0 93.6" fill="none" stroke="#5b6ee1" stroke-width="2.6" stroke-linejoin="round" stroke-linecap="round"/>
<circle cx="169.7" cy="100.2" r="3.4" fill="#2f9e8f"/>
<text x="169.7" y="92.2" font-size="10.5" fill="#2f9e8f" text-anchor="middle">~2017–18</text>
<circle cx="279.8" cy="116.6" r="3.4" fill="#e8923c"/>
<text x="279.8" y="108.6" font-size="10.5" fill="#e8923c" text-anchor="middle">~2019–20</text>
<circle cx="701.7" cy="95.0" r="3.4" fill="#5b6ee1"/>
<text x="701.7" y="87.0" font-size="10.5" fill="#5b6ee1" text-anchor="middle">rising</text>
<circle cx="90.2" cy="242.3" r="2.8" fill="#5b6ee1"/>
<text x="86.2" y="235.3" font-size="9" fill="#5b6ee1" text-anchor="start">AlphaGo &#8217;16</text>
<circle cx="197.2" cy="272.5" r="2.8" fill="#5b6ee1"/>
<text x="197.2" y="265.5" font-size="9" fill="#5b6ee1" text-anchor="middle">AlphaZero &#8217;17</text>
<circle cx="267.5" cy="277.8" r="2.8" fill="#5b6ee1"/>
<text x="267.5" y="270.8" font-size="9" fill="#5b6ee1" text-anchor="middle">AlphaStar &#8217;19</text>
<line x1="734" y1="92" x2="754" y2="92" stroke="#e8923c" stroke-width="3"/>
<text x="760" y="96" font-size="11.5" fill="#333333">NLP / Conversational AI</text>
<line x1="734" y1="112" x2="754" y2="112" stroke="#2f9e8f" stroke-width="3"/>
<text x="760" y="116" font-size="11.5" fill="#333333">Cloud Native</text>
<line x1="734" y1="132" x2="754" y2="132" stroke="#5b6ee1" stroke-width="3"/>
<text x="760" y="136" font-size="11.5" fill="#333333">LLM / AI Native</text>
<text x="78" y="364" font-size="13.5" font-weight="700" fill="#333333">Pattern 2 &#8212; Adoption eras (flat, parallel, rising by time)</text>
<line x1="78" y1="560" x2="720" y2="560" stroke="#999999" stroke-width="1.4"/>
<line x1="78" y1="370" x2="78" y2="560" stroke="#999999" stroke-width="1.4"/>
<line x1="261.4" y1="511.1" x2="261.4" y2="560" stroke="#e8923c" stroke-width="1" stroke-dasharray="3 3" opacity="0.5"/>
<line x1="261.4" y1="511.1" x2="322.6" y2="511.1" stroke="#e8923c" stroke-width="5" stroke-linecap="round"/>
<text x="292.0" y="489.1" font-size="11" font-weight="600" fill="#e8923c" text-anchor="middle">NLP</text>
<text x="292.0" y="501.1" font-size="8.5" fill="#8a8a8a" text-anchor="middle">(Alexa AI)</text>
<text x="332.6" y="515.1" font-size="10.5" fill="#777">2019–2020</text>
<line x1="322.6" y1="456.6" x2="322.6" y2="560" stroke="#2f9e8f" stroke-width="1" stroke-dasharray="3 3" opacity="0.5"/>
<line x1="322.6" y1="456.6" x2="506.0" y2="456.6" stroke="#2f9e8f" stroke-width="5" stroke-linecap="round"/>
<text x="383.7" y="434.6" font-size="11" font-weight="600" fill="#2f9e8f" text-anchor="middle">Container &amp; Serverless</text>
<text x="383.7" y="446.6" font-size="8.5" fill="#8a8a8a" text-anchor="middle">(Fargate, App Runner / Lambda)</text>
<text x="475.4" y="470.6" font-size="10.5" fill="#777" text-anchor="middle">2020–2022</text>
<line x1="506.0" y1="394.6" x2="506.0" y2="560" stroke="#5b6ee1" stroke-width="1" stroke-dasharray="3 3" opacity="0.5"/>
<line x1="506.0" y1="394.6" x2="701.7" y2="394.6" stroke="#5b6ee1" stroke-width="5" stroke-linecap="round"/>
<line x1="701.7" y1="394.6" x2="727.7" y2="394.6" stroke="#5b6ee1" stroke-width="3" stroke-dasharray="5 4"/>
<polygon points="727.7,389.6 736.7,394.6 727.7,399.6" fill="#5b6ee1"/>
<text x="603.8" y="372.6" font-size="11" font-weight="600" fill="#5b6ee1" text-anchor="middle">LLM (ongoing)</text>
<text x="603.8" y="384.6" font-size="8.5" fill="#8a8a8a" text-anchor="middle">(Bedrock, SageMaker)</text>
<text x="741.7" y="398.6" font-size="10.5" fill="#777">2023–now</text>
<text x="78.0" y="578" font-size="11" fill="#666" text-anchor="middle">2016</text>
<text x="200.3" y="578" font-size="11" fill="#666" text-anchor="middle">2018</text>
<text x="322.6" y="578" font-size="11" fill="#666" text-anchor="middle">2020</text>
<text x="444.9" y="578" font-size="11" fill="#666" text-anchor="middle">2022</text>
<text x="567.1" y="578" font-size="11" fill="#666" text-anchor="middle">2024</text>
<text x="689.4" y="578" font-size="11" fill="#666" text-anchor="middle">2026</text>
</svg>